<svg width="1440" height="461" viewBox="0 0 1440 461" fill="none" xmlns="http://www.w3.org/2000/svg">
<path d="M1571 10.6765C1567.27 -2.51335 1538.85 -1.76927 1537.62 8.85786C1533.46 41.5724 1492.96 83.1083 1440.17 104.42C1439.91 104.528 1439.7 104.669 1439.55 104.83C1439.41 104.991 1439.33 105.169 1439.33 105.348C1439.33 105.528 1439.41 105.704 1439.56 105.863C1439.71 106.022 1439.92 106.159 1440.19 106.264C1441.02 106.64 1441.99 106.913 1443.03 107.065C1444.07 107.216 1445.16 107.242 1446.23 107.141C1479.34 103.966 1540.53 81.7069 1542.4 64.5493C1516.39 301.068 1194.8 364.658 819.336 361.822C626.038 363.412 434.786 339.235 241.646 339.461C52.1577 341.889 -157.712 371.899 -280.928 457.402C-281.283 457.633 -281.53 457.909 -281.648 458.205C-281.765 458.501 -281.75 458.807 -281.603 459.097C-281.456 459.388 -281.181 459.653 -280.804 459.87C-280.426 460.086 -279.957 460.248 -279.438 460.34C-278.538 460.522 -277.555 460.545 -276.624 460.406C-275.694 460.267 -274.861 459.973 -274.239 459.565C-148.795 377.603 55.0276 351.03 241.334 351.5C434.863 354.185 623.505 381.865 817.955 382.681C1213.83 394.031 1569.54 323.682 1561.78 67.5034C1562.03 74.9858 1617.18 106.839 1661.03 107.567C1662.28 107.588 1663.51 107.35 1664.48 106.9C1665.44 106.45 1666.07 105.82 1666.25 105.132L1666.25 105.04C1666.34 104.647 1666.16 104.25 1665.73 103.934C1665.31 103.617 1664.67 103.405 1663.97 103.342C1615.59 98.2239 1578.44 37.2223 1571 10.6765Z" fill="#00E1B7"/>
</svg>
