<svg width="10" height="16" viewBox="0 0 10 16" fill="none" xmlns="http://www.w3.org/2000/svg">
<path d="M8.75065 3H6.25065C5.7904 3 5.41732 3.3731 5.41732 3.83333V6.33333H8.75065C8.8454 6.33123 8.93532 6.37533 8.99165 6.45158C9.04798 6.52783 9.06382 6.62667 9.03398 6.71667L8.41732 8.55C8.36048 8.71825 8.20323 8.832 8.02565 8.83333H5.41732V15.0833C5.41732 15.3134 5.23073 15.5 5.00065 15.5H2.91732C2.6872 15.5 2.50065 15.3134 2.50065 15.0833V8.83333H1.25065C1.02053 8.83333 0.833984 8.64675 0.833984 8.41667V6.75C0.833984 6.51992 1.02053 6.33333 1.25065 6.33333H2.50065V3.83333C2.50065 1.99238 3.99307 0.5 5.83398 0.5H8.75065C8.98073 0.5 9.16732 0.68655 9.16732 0.916667V2.58333C9.16732 2.81345 8.98073 3 8.75065 3Z" fill="#002538"/>
</svg>
