<svg width="40" height="40" viewBox="0 0 40 40" fill="none" xmlns="http://www.w3.org/2000/svg">
<g clip-path="url(#clip0_26_409)">
<path fill-rule="evenodd" clip-rule="evenodd" d="M19.9204 2.94827C18.1111 2.94827 16.3204 3.31431 14.6562 4.02437C12.9921 4.73443 11.4887 5.77382 10.2367 7.08002C8.98462 8.38622 8.00976 9.93221 7.37077 11.625C6.73176 13.3177 6.44182 15.1223 6.51839 16.93C6.54713 17.6086 6.02035 18.1819 5.34178 18.2107C4.66322 18.2395 4.08983 17.7127 4.06109 17.0341C3.97049 14.8948 4.3136 12.7595 5.06975 10.7564C5.82592 8.75323 6.97952 6.92378 8.46112 5.37809C9.94273 3.8324 11.7217 2.60244 13.6911 1.76218C15.6604 0.921927 17.7794 0.48877 19.9204 0.48877C22.0616 0.48877 24.1805 0.921927 26.1498 1.76218C28.1192 2.60244 29.8982 3.8324 31.3799 5.37809C32.8614 6.92378 34.0151 8.75323 34.7712 10.7564C35.5274 12.7595 35.8705 14.8948 35.7798 17.0341C35.751 17.7127 35.1777 18.2395 34.4991 18.2107C33.8206 18.1819 33.2939 17.6086 33.3225 16.93C33.3992 15.1223 33.1092 13.3177 32.4702 11.625C31.8312 9.93221 30.8563 8.38622 29.6043 7.08002C28.3522 5.77382 26.849 4.73443 25.1846 4.02437C23.5205 3.31431 21.7298 2.94827 19.9204 2.94827Z" fill="#002638"/>
<path fill-rule="evenodd" clip-rule="evenodd" d="M33.1263 29.4466C33.6798 29.8402 33.8093 30.608 33.4156 31.1615C32.2003 32.8697 30.6584 34.3198 28.8789 35.4281C27.0995 36.5363 25.1178 37.2805 23.0488 37.6177C22.3785 37.7268 21.7465 37.2719 21.6373 36.6016C21.5281 35.9312 21.9829 35.2993 22.6533 35.1901C24.4013 34.9052 26.0754 34.2766 27.5788 33.3402C29.0821 32.4041 30.3848 31.1789 31.4115 29.7357C31.8052 29.1824 32.5729 29.0528 33.1263 29.4466Z" fill="#002638"/>
<path fill-rule="evenodd" clip-rule="evenodd" d="M5.77291 18.2862C5.30616 18.1695 4.81525 18.1944 4.36283 18.3581C3.91042 18.5217 3.51703 18.8165 3.23291 19.2047C2.84494 19.7337 2.68181 20.396 2.78068 21.0445L2.78088 21.0458L3.74471 27.4149C3.8132 27.891 4.02188 28.3359 4.34418 28.6929C4.66649 29.0499 5.0878 29.3028 5.55441 29.4195C6.02101 29.5361 6.51179 29.5113 6.96417 29.3479C7.41647 29.1846 7.80992 28.8903 8.09439 28.5026C8.48184 27.973 8.64412 27.3115 8.54579 26.6626L7.58174 20.2919C7.51374 19.8157 7.30538 19.3705 6.98318 19.0132C6.661 18.656 6.23963 18.4027 5.77291 18.2862ZM3.52636 16.0453C4.43855 15.7154 5.42836 15.6648 6.36941 15.9001C7.31047 16.1353 8.16005 16.6457 8.80967 17.366C9.45807 18.0851 9.8779 18.9807 10.0158 19.9388L10.9775 26.2942C11.1732 27.5856 10.8499 28.9023 10.0784 29.9562C9.50503 30.7378 8.71119 31.332 7.79937 31.6612C6.88756 31.9904 5.89837 32.0406 4.95789 31.8056C4.0174 31.5704 3.16824 31.0606 2.51861 30.341C1.87006 29.6227 1.44971 28.7277 1.31094 27.77L0.34928 21.4152C0.152539 20.1234 0.475832 18.8055 1.24852 17.7517C1.82136 16.9691 2.61437 16.375 3.52636 16.0453Z" fill="#002638"/>
<path fill-rule="evenodd" clip-rule="evenodd" d="M33.5665 15.9006C34.0738 15.7737 34.5953 15.73 35.1112 15.7683C35.5522 15.801 35.9892 15.8937 36.4096 16.0458C36.8608 16.2089 37.2829 16.4368 37.6637 16.7202C38.0523 17.0095 38.3979 17.3567 38.6872 17.752C39.0744 18.2797 39.3486 18.8737 39.5014 19.4973C39.6535 20.1188 39.685 20.7699 39.5868 21.4146L38.6266 27.7703C38.4879 28.7281 38.0675 29.6231 37.419 30.3415C37.0582 30.7411 36.6359 31.076 36.1707 31.3351C35.7981 31.5426 35.3979 31.7015 34.9797 31.8061C34.4772 31.9316 33.9608 31.9758 33.4498 31.9395C33.0043 31.9079 32.5628 31.815 32.1382 31.6617C31.6248 31.4763 31.149 31.2073 30.7289 30.868C30.4028 30.6046 30.1104 30.2992 29.8599 29.9576C29.5801 29.5755 29.3586 29.1578 29.2002 28.7205C28.9214 27.9516 28.8353 27.1183 28.96 26.2952L29.9202 19.9394C29.9972 19.4033 30.1626 18.8867 30.407 18.4097C30.5993 18.0343 30.8406 17.6832 31.1262 17.3665C31.4647 16.9913 31.8574 16.673 32.289 16.4208C32.6859 16.1891 33.1157 16.0132 33.5665 15.9006ZM34.9291 18.221C34.6733 18.202 34.4147 18.2237 34.163 18.2867C33.9395 18.3426 33.7263 18.4297 33.5294 18.5446C33.3153 18.6697 33.1206 18.8275 32.9527 19.0137C32.811 19.1707 32.6915 19.3448 32.596 19.5311C32.4744 19.7685 32.3923 20.0256 32.3541 20.2924L32.3528 20.3023L31.3918 26.6625C31.3291 27.0764 31.3724 27.4958 31.5124 27.8824C31.5919 28.102 31.7027 28.311 31.843 28.5028C31.9673 28.6723 32.1125 28.8239 32.2742 28.9546C32.4826 29.123 32.7186 29.2564 32.9733 29.3484C33.1841 29.4245 33.4031 29.4705 33.6241 29.4862C33.8777 29.5043 34.1338 29.4823 34.3832 29.42C34.5907 29.368 34.7892 29.2893 34.974 29.1863C35.205 29.0577 35.4144 28.8916 35.5934 28.6933C35.9156 28.3363 36.1243 27.8915 36.1929 27.4154L36.1941 27.4068L37.1552 21.045C37.2046 20.7212 37.1889 20.3944 37.1125 20.0823C37.0358 19.7691 36.8981 19.4712 36.7038 19.2063C36.5602 19.0101 36.388 18.8368 36.195 18.6932C36.0063 18.5526 35.7969 18.4396 35.5731 18.3586C35.3646 18.2831 35.1479 18.2373 34.9291 18.221Z" fill="#002638"/>
<path fill-rule="evenodd" clip-rule="evenodd" d="M19.9163 33.708C18.9204 33.708 18.0962 34.5245 18.0962 35.5527C18.0962 36.5807 18.9204 37.3972 19.9163 37.3972C20.9122 37.3972 21.7363 36.5807 21.7363 35.5527C21.7363 34.5245 20.9122 33.708 19.9163 33.708ZM15.6367 35.5527C15.6367 33.1848 17.5435 31.2485 19.9163 31.2485C22.2891 31.2485 24.1958 33.1848 24.1958 35.5527C24.1958 37.9205 22.2891 39.8567 19.9163 39.8567C17.5435 39.8567 15.6367 37.9205 15.6367 35.5527Z" fill="#002638"/>
</g>
<defs>
<clipPath id="clip0_26_409">
<rect width="39.352" height="39.352" fill="white" transform="translate(0.292969 0.483398)"/>
</clipPath>
</defs>
</svg>
