<svg width="16" height="16" viewBox="0 0 16 16" fill="none" xmlns="http://www.w3.org/2000/svg">
<path fill-rule="evenodd" clip-rule="evenodd" d="M11.3333 0.5H4.66667C2.36548 0.5 0.5 2.36548 0.5 4.66667V11.3333C0.5 13.6345 2.36548 15.5 4.66667 15.5H11.3333C13.6345 15.5 15.5 13.6345 15.5 11.3333V4.66667C15.5 2.36548 13.6345 0.5 11.3333 0.5ZM14.0417 11.3333C14.0371 12.8272 12.8272 14.0371 11.3333 14.0417H4.66667C3.17279 14.0371 1.96291 12.8272 1.95833 11.3333V4.66667C1.96291 3.17279 3.17279 1.96291 4.66667 1.95833H11.3333C12.8272 1.96291 14.0371 3.17279 14.0417 4.66667V11.3333ZM11.9583 4.875C12.4186 4.875 12.7917 4.5019 12.7917 4.04167C12.7917 3.58143 12.4186 3.20833 11.9583 3.20833C11.4981 3.20833 11.125 3.58143 11.125 4.04167C11.125 4.5019 11.4981 4.875 11.9583 4.875ZM8 4.25C5.92893 4.25 4.25 5.92893 4.25 8C4.25 10.0711 5.92893 11.75 8 11.75C10.0711 11.75 11.75 10.0711 11.75 8C11.7522 7.00475 11.3578 6.04964 10.6541 5.3459C9.95033 4.64216 8.99525 4.24778 8 4.25ZM5.70833 8C5.70833 9.26567 6.73433 10.2917 8 10.2917C9.26567 10.2917 10.2917 9.26567 10.2917 8C10.2917 6.73433 9.26567 5.70833 8 5.70833C6.73433 5.70833 5.70833 6.73433 5.70833 8Z" fill="#002538"/>
</svg>
