<svg width="142" height="49" viewBox="0 0 142 49" fill="none" xmlns="http://www.w3.org/2000/svg">
<path d="M121.211 9.09098C122.577 9.57734 123.773 10.0029 124.968 10.4285C129.919 12.2513 134.44 14.5497 137.844 17.7381C142.524 22.01 143.009 26.7948 139.13 31.4937C137.148 33.9326 134.399 35.829 131.223 37.4836C124.958 40.674 117.93 42.6643 110.563 44.2341C99.7688 46.5008 88.7245 47.69 77.5142 48.0414C65.3623 48.447 53.3013 47.9564 41.2458 46.5694C32.5244 45.6206 23.8917 44.1344 15.7796 41.4559C12.6201 40.4208 9.46237 39.0869 6.73385 37.5165C-0.342676 33.3498 -1.84446 26.945 2.72397 21.2938C4.96523 18.4979 8.14476 16.1857 11.6647 14.1744C20.0782 9.38302 29.7643 6.39246 40.0443 4.24228C54.1793 1.27831 68.5603 0.109028 83.2738 0.555628C93.0258 0.853019 102.775 1.56881 112.175 3.53777C114.995 4.09259 117.642 4.94525 120.376 5.67888C121.059 5.86228 121.656 6.16472 122.254 6.46716C123.789 7.31317 123.699 8.02992 121.983 8.79672C121.811 8.91524 121.554 8.97348 121.211 9.09098ZM79.3204 3.52069C79.3207 3.46092 79.3211 3.40114 79.3214 3.34137C78.8081 3.3383 78.2096 3.27495 77.6962 3.27188C65.8035 3.26056 54.0752 4.38593 42.5963 6.70826C32.6596 8.68118 23.1457 11.4934 14.9903 16.0473C11.7281 17.8808 8.7215 19.8951 6.56722 22.4525C2.60304 27.2107 3.8553 32.4185 9.99536 35.8026C12.2979 37.0716 14.8585 38.103 17.5057 38.9557C24.6785 41.3298 32.2856 42.6305 39.9799 43.6329C51.094 45.0741 62.2998 45.4997 73.5087 45.3874C86.6859 45.2271 99.699 43.8703 112.208 40.9564C118.12 39.5572 123.777 37.8575 128.84 35.3175C131.93 33.7221 134.594 31.8253 136.319 29.3849C138.218 26.6466 138.406 23.8384 136.198 21.1353C135.348 20.1141 134.242 19.0913 133.135 18.2479C129.472 15.4764 125.035 13.5371 120.081 12.0131C113.932 10.1234 107.61 8.7108 101.027 7.77484C92.3078 6.46747 83.4991 5.81707 74.6792 7.0196C74.2511 7.07681 73.6515 7.19278 73.31 7.07119C72.7125 6.82852 71.9443 6.52506 71.7753 6.16541C71.6064 5.80575 72.1233 5.21111 72.5528 4.9148C73.068 4.61901 73.8387 4.50407 74.5239 4.38862C76.1519 3.97994 77.6934 3.75006 79.3204 3.52069ZM106.687 5.59704C110.874 6.57845 114.975 7.49958 119.161 8.48099C115.322 6.72459 111.134 5.98227 106.687 5.59704Z" fill="#00E1B7"/>
</svg>
