<svg width="16" height="17" viewBox="0 0 16 17" fill="none" xmlns="http://www.w3.org/2000/svg">
<path d="M7.75566 2.03748C11.2885 2.03748 14.1522 4.9012 14.1522 8.434C14.1522 11.9668 11.2885 14.8305 7.75566 14.8305C6.62524 14.8325 5.51469 14.5333 4.53821 13.9638L1.3617 14.8305L2.22651 11.6527C1.65655 10.6759 1.35716 9.56491 1.35914 8.434C1.35914 4.9012 4.22286 2.03748 7.75566 2.03748ZM5.57573 5.42763L5.4478 5.43275C5.36508 5.43845 5.28427 5.46017 5.20985 5.49671C5.14049 5.53606 5.07716 5.58518 5.02179 5.64255C4.94503 5.71484 4.90153 5.77752 4.85484 5.83829C4.61825 6.1459 4.49086 6.52356 4.4928 6.91162C4.49408 7.22505 4.57595 7.53017 4.70388 7.81545C4.9655 8.39242 5.39598 9.00329 5.964 9.56938C6.10088 9.70562 6.23521 9.84251 6.37977 9.9698C7.08558 10.5912 7.92663 11.0393 8.83603 11.2785L9.19936 11.3342C9.31769 11.3406 9.43603 11.3316 9.555 11.3259C9.74126 11.316 9.92312 11.2656 10.0878 11.1781C10.1715 11.1348 10.2533 11.0879 10.3328 11.0374C10.3328 11.0374 10.3599 11.019 10.4128 10.9798C10.4991 10.9158 10.5522 10.8704 10.6239 10.7956C10.6776 10.7402 10.7224 10.6758 10.7582 10.6024C10.8081 10.4982 10.858 10.2992 10.8784 10.1336C10.8938 10.0069 10.8893 9.93782 10.8874 9.89496C10.8848 9.82652 10.8279 9.75552 10.7659 9.72545L10.3936 9.5585C10.3936 9.5585 9.83709 9.31608 9.49679 9.16128C9.46117 9.14577 9.42302 9.13689 9.38422 9.13505C9.34045 9.13048 9.2962 9.13536 9.25449 9.14938C9.21277 9.16339 9.17455 9.18621 9.14243 9.21629C9.13923 9.21501 9.09637 9.25147 8.6339 9.81181C8.60736 9.84747 8.5708 9.87443 8.52887 9.88924C8.48695 9.90405 8.44157 9.90604 8.39851 9.89496C8.35682 9.88385 8.31599 9.86974 8.27634 9.85274C8.19702 9.81948 8.16952 9.80669 8.11515 9.78366C7.7479 9.62369 7.40797 9.40721 7.10769 9.14209C7.0271 9.07173 6.95226 8.99497 6.8755 8.92077C6.62387 8.67975 6.40456 8.40712 6.22305 8.10969L6.18531 8.04892C6.15862 8.00786 6.13673 7.96386 6.12007 7.9178C6.09576 7.82377 6.15909 7.74829 6.15909 7.74829C6.15909 7.74829 6.31452 7.57814 6.38681 7.48603C6.45717 7.39648 6.51665 7.30949 6.55503 7.24744C6.63051 7.12591 6.65418 7.00118 6.61452 6.90459C6.43542 6.46707 6.25035 6.03189 6.0593 5.59906C6.02156 5.51334 5.90963 5.45194 5.80792 5.43978C5.77338 5.43552 5.73884 5.43211 5.7043 5.42955C5.61841 5.42462 5.53229 5.42548 5.44652 5.43211L5.57573 5.42763Z" fill="#0C4170"/>
</svg>
