<svg width="16" height="14" viewBox="0 0 16 14" fill="none" xmlns="http://www.w3.org/2000/svg">
<path d="M15.478 2.59783C15.091 3.1141 14.6232 3.56444 14.0926 3.93147C14.0926 4.06633 14.0926 4.20118 14.0926 4.34354C14.0969 6.79258 13.1186 9.14092 11.3772 10.8621C9.63571 12.5833 7.27671 13.5333 4.82909 13.4991C3.41404 13.5038 2.01711 13.1808 0.747731 12.5551C0.679281 12.5252 0.635139 12.4575 0.635397 12.3828V12.3003C0.635397 12.1928 0.722572 12.1056 0.830106 12.1056C2.22106 12.0597 3.5624 11.5774 4.66433 10.727C3.40532 10.7016 2.27254 9.95575 1.75121 8.80892C1.72489 8.74634 1.73308 8.67442 1.77286 8.61933C1.81262 8.56425 1.87821 8.53392 1.94592 8.53925C2.32856 8.57767 2.71503 8.54208 3.08421 8.43433C1.69437 8.14583 0.650055 6.992 0.500597 5.57975C0.495289 5.512 0.525647 5.44642 0.580714 5.40658C0.635772 5.36684 0.70758 5.35858 0.770197 5.385C1.14316 5.54958 1.54579 5.63625 1.95341 5.63967C0.73558 4.84038 0.209555 3.32004 0.672839 1.93852C0.720664 1.80428 0.835555 1.7051 0.975297 1.67745C1.11503 1.64979 1.25901 1.69774 1.35431 1.80366C2.99771 3.55271 5.25575 4.59497 7.6523 4.71066C7.59096 4.46571 7.5608 4.21397 7.56246 3.96143C7.58488 2.63727 8.40421 1.45768 9.63688 0.974893C10.8695 0.492118 12.2715 0.801694 13.1865 1.7587C13.8102 1.63988 14.4132 1.43038 14.9763 1.13684C15.0175 1.11109 15.0699 1.11109 15.1111 1.13684C15.1369 1.17811 15.1369 1.23043 15.1111 1.2717C14.8384 1.89627 14.3776 2.4201 13.7931 2.77016C14.305 2.7108 14.8078 2.59006 15.2909 2.41053C15.3315 2.38285 15.385 2.38285 15.4256 2.41053C15.4597 2.42612 15.4852 2.45593 15.4953 2.49202C15.5054 2.52811 15.499 2.56682 15.478 2.59783Z" fill="#002538"/>
</svg>
